<mxfile host="app.diagrams.net" modified="2023-09-11T16:13:58.783Z" agent="Mozilla/5.0 (Windows NT 10.0; Win64; x64) AppleWebKit/537.36 (KHTML, like Gecko) Chrome/116.0.0.0 Safari/537.36" version="21.7.2" etag="e-T-8yHo5TQTq8LrzZ7n" type="github">
  <diagram name="PÃ¡gina-1" id="MNLW1KWjaslaE5As83-e">
    <mxGraphModel>
      <root>
        <mxCell id="0" />
        <mxCell id="1" parent="0" />
      </root>
    </mxGraphModel>
  </diagram>
</mxfile>
